<svg width="100" height="18" viewBox="0 0 100 18" fill="none" xmlns="http://www.w3.org/2000/svg">
<path d="M18.8958 17.7254H13.8965L12.5972 13.7238H6.21388L4.88637 17.7254H0L6.55282 0H12.3712L18.8958 17.7254ZM7.11772 10.5815H11.6934L9.40556 3.4108L7.11772 10.5815ZM42.643 0V17.7254H38.3498V9.58784L38.491 4.13593H38.4344L33.8305 17.7254H29.9045L25.3006 4.13593H25.2441L25.3854 9.58784V17.7254H21.0639V0H27.9838L30.9213 9.02385L31.9664 12.7838H32.0229L33.0962 9.05071L36.0054 0H42.643ZM63.718 17.7254H58.7187L57.4195 13.7238H51.0362L49.7087 17.7254H44.8223L51.375 0H57.1936L63.718 17.7254ZM51.9399 10.5815H56.5156L54.2278 3.4108L51.9399 10.5815ZM68.6824 15.7918L67.835 14.2341H80.8559V17.7254H64.8693V14.3952L76.7604 1.93368L77.6078 3.49137H65.067V0H80.517V3.33023L68.6824 15.7918ZM100 0L93.419 11.2529V17.7254H88.5609V11.2529L81.9797 0H87.0073L89.6342 4.86107L91.0182 7.8153L92.4303 4.86107L95.0572 0H100Z" fill="white"/>
</svg>
