<svg width="117" height="24" viewBox="0 0 117 24" fill="none" xmlns="http://www.w3.org/2000/svg">
<path d="M16.7963 20H12.3525L11.1975 16.3879H5.52345L4.34344 20H0L5.82473 4H10.9967L16.7963 20ZM6.32686 13.5515H10.3942L8.3605 7.07878L6.32686 13.5515ZM37.9049 4V20H34.0887V12.6545L34.2142 7.73333H34.164L30.0716 20H26.5818L22.4894 7.73333H22.4392L22.5648 12.6545V20H18.7234V4H24.8745L27.4856 12.1455L28.4145 15.5394H28.4648L29.4188 12.1697L32.0048 4H37.9049ZM56.6383 20H52.1944L51.0396 16.3879H45.3655L44.1855 20H39.842L45.6667 4H50.8387L56.6383 20ZM46.1688 13.5515H50.2361L48.2025 7.07878L46.1688 13.5515ZM61.051 18.2546L60.2978 16.8485H71.872V20H57.6616V16.9939L68.2315 5.74545L68.9847 7.15151H57.8373V4H71.5706V7.00606L61.051 18.2546ZM88.8889 4L83.0391 14.1575V20H78.7208V14.1575L72.8709 4H77.3398L79.6748 8.38788L80.9051 11.0545L82.1603 8.38788L84.4953 4H88.8889Z" fill="white"/>
<path d="M99.4895 5.77783C98.4954 5.77783 97.6895 6.57384 97.6895 7.55561V18.2223C97.6895 19.204 98.4954 20.0001 99.4895 20.0001H101.189C101.742 20.0001 102.189 19.5523 102.189 19.0001V14.8889C102.189 13.7844 103.085 12.8889 104.189 12.8889H105.589C106.694 12.8889 107.589 13.7844 107.589 14.8889V19.0001C107.589 19.5523 108.037 20.0001 108.589 20.0001H110.289C111.283 20.0001 112.089 19.204 112.089 18.2223V7.55561C112.089 6.57384 111.283 5.77783 110.289 5.77783H99.4895Z" fill="#276EF5"/>
<path d="M98.5887 11.1111C99.5282 11.1111 100.355 10.6654 100.839 9.98917C101.322 10.6654 102.149 11.1111 103.089 11.1111C103.78 11.1111 104.411 10.8695 104.889 10.472C105.366 10.8695 105.997 11.1111 106.689 11.1111C107.628 11.1111 108.455 10.6654 108.939 9.98917C109.422 10.6654 110.249 11.1111 111.189 11.1111C112.164 11.1111 113.017 10.631 113.492 9.91143C113.995 9.14883 113.68 8.1747 113.279 7.35402L111.913 4.56072C111.745 4.21758 111.396 4 111.015 4H98.3713C97.9596 4 97.59 4.2523 97.44 4.63569L96.301 7.54727C96.0285 8.24382 95.8109 9.02632 96.1553 9.69024C96.5915 10.531 97.517 11.1111 98.5887 11.1111Z" fill="#5A93FF"/>
</svg>
