<svg width="16" height="17" viewBox="0 0 16 17" fill="none" xmlns="http://www.w3.org/2000/svg">
<g clip-path="url(#clip0_2511_11120)">
<path d="M8.42992 4.23103H7.57099C7.49242 4.23103 7.42813 4.29532 7.42813 4.37389V9.28996C7.42813 9.33639 7.44956 9.37924 7.48706 9.40603L10.4388 11.5614C10.5031 11.6078 10.5924 11.5953 10.6388 11.531L11.1496 10.8346C11.1978 10.7685 11.1835 10.6792 11.1192 10.6346L8.57277 8.79353V4.37389C8.57277 4.29532 8.50849 4.23103 8.42992 4.23103ZM12.3549 5.57389L15.1549 6.25782C15.2442 6.27924 15.3317 6.21139 15.3317 6.12032L15.346 3.23639C15.346 3.11674 15.2085 3.04889 15.1156 3.12389L12.3013 5.3221C12.2801 5.33855 12.2639 5.36068 12.2546 5.38593C12.2454 5.41117 12.2434 5.43852 12.249 5.46482C12.2546 5.49113 12.2675 5.51532 12.2863 5.53461C12.305 5.5539 12.3288 5.56752 12.3549 5.57389ZM15.3496 10.9507L14.3371 10.6025C14.3018 10.5904 14.2631 10.5926 14.2294 10.6086C14.1957 10.6246 14.1696 10.6532 14.1567 10.6882C14.1228 10.7792 14.0871 10.8685 14.0496 10.9578C13.7317 11.7096 13.2763 12.3864 12.6942 12.9667C12.1185 13.5442 11.4363 14.0045 10.6853 14.3221C9.90729 14.651 9.07101 14.8199 8.22635 14.8185C7.37278 14.8185 6.54599 14.6525 5.76742 14.3221C5.01642 14.0045 4.33417 13.5442 3.75849 12.9667C3.17813 12.3864 2.72277 11.7096 2.40313 10.9578C2.07602 10.1794 1.90842 9.34325 1.91027 8.49889C1.91027 7.64532 2.07635 6.81674 2.4067 6.03817C2.72456 5.28639 3.17992 4.6096 3.76206 4.02924C4.33774 3.45178 5.01999 2.99149 5.77099 2.67389C6.54599 2.34353 7.37456 2.17746 8.22813 2.17746C9.0817 2.17746 9.90849 2.34353 10.6871 2.67389C11.4381 2.99149 12.1203 3.45178 12.696 4.02924C12.8781 4.21317 13.0496 4.40424 13.2067 4.60603L14.2746 3.77032C12.8692 1.97389 10.6817 0.818529 8.22456 0.820315C3.94599 0.8221 0.510274 4.2971 0.553131 8.57746C0.595988 12.7828 4.01563 16.1775 8.22813 16.1775C11.5406 16.1775 14.3621 14.0775 15.4371 11.1364C15.4638 11.0614 15.4246 10.9775 15.3496 10.9507Z" fill="white"/>
</g>
<defs>
<clipPath id="clip0_2511_11120">
<rect width="16" height="16" fill="white" transform="translate(0 0.5)"/>
</clipPath>
</defs>
</svg>
