<svg width="40" height="12" viewBox="0 0 40 12" fill="none" xmlns="http://www.w3.org/2000/svg">
<path d="M18.1069 2.21133L14.1511 6.16715C12.2216 8.09659 11.2569 9.06131 10.1311 9.75121C9.13296 10.3629 8.04476 10.8136 6.90645 11.0869C5.62255 11.3951 4.25823 11.3951 1.5296 11.3951H38.6284C35.8998 11.3951 34.5354 11.3951 33.2515 11.0869C32.1132 10.8136 31.025 10.3629 30.0269 9.75121C28.9011 9.06131 27.9364 8.09659 26.0069 6.16715L22.0511 2.21133C20.9619 1.12217 19.1961 1.12217 18.1069 2.21133Z" fill="#444444"/>
<path d="M38.6284 10.0007C35.8334 10.0007 34.6632 9.99169 33.5771 9.73094C32.5811 9.49182 31.6289 9.09742 30.7555 8.56221C29.8032 7.97861 28.9693 7.15747 26.993 5.1811L23.0372 1.22528C21.4034 -0.408466 18.7546 -0.408461 17.1208 1.22528L13.165 5.1811C11.1887 7.15747 10.3548 7.97861 9.40249 8.56221C8.52911 9.09742 7.57694 9.49182 6.58092 9.73094C5.49483 9.99169 4.32461 10.0007 1.5296 10.0007H0.556152V11.3951H1.5296C4.25823 11.3951 5.62255 11.3951 6.90645 11.0869C8.04476 10.8136 9.13296 10.3629 10.1311 9.75121C11.2569 9.06131 12.2216 8.09659 14.1511 6.16715L18.1069 2.21133C19.1961 1.12217 20.9619 1.12217 22.0511 2.21133L26.0069 6.16715C27.9364 8.09659 28.9011 9.06131 30.0269 9.75121C31.025 10.3629 32.1132 10.8136 33.2515 11.0869C34.5354 11.3951 35.8998 11.3951 38.6284 11.3951H39.6018V10.0007H38.6284Z" fill="#606060"/>
</svg>
